<?xml version="1.0" encoding="UTF-8"?>
<!DOCTYPE svg PUBLIC "-//W3C//DTD SVG 1.1//EN" "http://www.w3.org/Graphics/SVG/1.1/DTD/svg11.dtd">
<svg xmlns="http://www.w3.org/2000/svg" version="1.1" width="500px" height="463px" style="shape-rendering:geometricPrecision; text-rendering:geometricPrecision; image-rendering:optimizeQuality; fill-rule:evenodd; clip-rule:evenodd" xmlns:xlink="http://www.w3.org/1999/xlink">
<g><path style="opacity:1" fill="#0e0e0e" d="M 229.5,17.5 C 316.839,13.0794 383.339,47.7461 429,121.5C 456.4,172.435 461.9,225.602 445.5,281C 463.819,283.319 474.153,293.653 476.5,312C 475.781,317.158 474.448,322.158 472.5,327C 482.883,339.338 484.55,352.671 477.5,367C 483.463,379.251 482.296,390.751 474,401.5C 463.74,411.386 451.906,418.886 438.5,424C 408.749,436.517 377.749,443.35 345.5,444.5C 328.594,445.019 312.594,441.519 297.5,434C 292.368,430.533 287.534,426.7 283,422.5C 260.667,426.5 238.333,426.5 216,422.5C 198.133,438.347 177.133,445.68 153,444.5C 111.967,443.154 73.4669,432.654 37.5,413C 25.5231,406.048 18.5231,395.715 16.5,382C 16.9731,376.581 18.6398,371.581 21.5,367C 17.8234,361.966 16.1567,356.299 16.5,350C 16.5472,340.906 19.8805,333.239 26.5,327C 19.3479,312.35 21.6812,299.35 33.5,288C 39.5114,283.885 46.1781,281.551 53.5,281C 33.3657,209.333 46.8657,144.833 94,87.5C 130.304,47.0976 175.47,23.7643 229.5,17.5 Z M 247.5,37.5 C 318.506,39.7349 372.673,70.7349 410,130.5C 433.283,172.437 439.617,216.77 429,263.5C 420.813,255.325 410.979,252.491 399.5,255C 395.271,256.115 391.271,257.781 387.5,260C 381.692,264.307 376.359,269.141 371.5,274.5C 358.163,260.4 343.496,258.9 327.5,270C 324.547,273.408 321.713,276.908 319,280.5C 312.66,297.52 303.993,313.186 293,327.5C 280.702,338.122 272.035,351.122 267,366.5C 264.134,379.222 265.634,391.389 271.5,403C 256.503,404.976 241.503,404.976 226.5,403C 236.344,381.326 233.844,361.16 219,342.5C 200.877,325.02 187.543,304.353 179,280.5C 168.853,263.895 154.686,259.062 136.5,266C 133.02,268.646 129.686,271.479 126.5,274.5C 119.242,265.084 109.909,258.584 98.5,255C 87.6038,252.598 78.1038,255.098 70,262.5C 56.1616,193.687 74.3283,134.854 124.5,86C 159.765,55.3701 200.765,39.2034 247.5,37.5 Z M 51.5,364.5 C 50.7095,363.599 49.7095,362.932 48.5,362.5C 42.5195,360.354 38.8529,356.187 37.5,350C 38.106,345.279 40.7727,342.779 45.5,342.5C 50.7154,343.294 55.7154,344.794 60.5,347C 74.3284,354.413 87.9951,362.08 101.5,370C 106.266,372.904 109.266,371.737 110.5,366.5C 109.543,362.088 107.21,358.588 103.5,356C 86.434,344.605 69.1007,333.605 51.5,323C 47.6433,320.151 44.9766,316.485 43.5,312C 44.358,307.142 47.1913,304.309 52,303.5C 62.9482,306.127 72.7815,310.96 81.5,318C 93.72,326.951 105.387,336.618 116.5,347C 119.055,348.444 121.721,349.611 124.5,350.5C 128.552,350.293 130.052,348.293 129,344.5C 127.056,340.89 124.723,337.557 122,334.5C 110.237,323.241 99.0707,311.574 88.5,299.5C 88.573,297.973 87.9063,296.973 86.5,296.5C 82.6039,289.965 82.6039,283.465 86.5,277C 92.3915,275.472 97.7249,276.806 102.5,281C 117.293,298.805 130.127,317.971 141,338.5C 145.661,344.407 151.495,345.907 158.5,343C 161.809,339.923 162.309,336.423 160,332.5C 155.054,327.554 150.054,322.554 145,317.5C 139.879,308.479 139.213,299.146 143,289.5C 149.42,282.51 155.087,283.177 160,291.5C 169.331,316.847 183.664,338.847 203,357.5C 212.593,371.238 212.927,385.238 204,399.5C 197.395,410.754 187.562,417.254 174.5,419C 128.13,423.46 84.7968,414.127 44.5,391C 41.5017,388.671 39.5017,385.671 38.5,382C 39.5937,377.574 42.4271,375.408 47,375.5C 50.2691,375.923 53.4358,376.756 56.5,378C 66.2746,383.439 76.2746,388.439 86.5,393C 97.6255,393.206 99.2922,389.206 91.5,381C 78.3445,375.005 65.0112,369.505 51.5,364.5 Z M 350.5,320.5 C 348.5,321.833 346.833,323.5 345.5,325.5C 339.929,328.558 337.096,333.224 337,339.5C 341.131,344.623 346.297,345.79 352.5,343C 354,341.5 355.5,340 357,338.5C 367.172,319.478 378.839,301.478 392,284.5C 397.223,278.12 403.723,275.62 411.5,277C 415.267,282.955 415.434,289.122 412,295.5C 401.104,309.401 389.104,322.401 376,334.5C 372.736,338.028 370.236,342.028 368.5,346.5C 369.278,348.945 370.945,350.278 373.5,350.5C 376.279,349.611 378.945,348.444 381.5,347C 395.302,334.192 409.969,322.526 425.5,312C 430.198,309.651 434.864,307.318 439.5,305C 446.91,301.706 451.91,303.873 454.5,311.5C 451.444,318.725 446.444,324.225 439.5,328C 422.525,337.319 406.358,347.819 391,359.5C 387.754,362.981 387.254,366.648 389.5,370.5C 391.074,371.631 392.741,371.798 394.5,371C 408.672,362.746 423.005,354.746 437.5,347C 442.886,344.258 448.553,342.924 454.5,343C 458.265,343.768 460.265,346.102 460.5,350C 458.609,356.892 454.276,361.559 447.5,364C 433.672,369.276 420.005,374.943 406.5,381C 401.115,384.423 400.449,388.423 404.5,393C 406.833,393.667 409.167,393.667 411.5,393C 421.779,388.527 431.779,383.527 441.5,378C 446.44,375.558 451.44,375.225 456.5,377C 460.311,380.273 460.478,383.773 457,387.5C 449.202,394.32 440.369,399.487 430.5,403C 394.468,418.004 357.135,423.004 318.5,418C 304.522,414.023 295.022,405.19 290,391.5C 285.52,379.247 287.187,367.914 295,357.5C 314.348,338.814 328.681,316.814 338,291.5C 345.931,281.432 352.264,282.432 357,294.5C 359.191,304.342 357.024,313.009 350.5,320.5 Z"/></g>
<g><path style="opacity:1" fill="#16181c" d="M 179.5,133.5 C 198.121,133.124 208.788,142.124 211.5,160.5C 211.015,165.624 209.348,170.29 206.5,174.5C 205.707,174.931 204.873,175.265 204,175.5C 198.709,173.063 193.209,171.896 187.5,172C 183.521,175.648 179.855,179.648 176.5,184C 174.029,184.706 171.695,184.373 169.5,183C 157.007,173.17 154.174,161.003 161,146.5C 165.689,139.964 171.856,135.631 179.5,133.5 Z"/></g>
<g><path style="opacity:1" fill="#16191d" d="M 311.5,133.5 C 330.12,133.123 340.787,142.123 343.5,160.5C 342.783,170.71 338.117,178.544 329.5,184C 327.029,184.706 324.695,184.373 322.5,183C 319.978,178.966 316.978,175.299 313.5,172C 307.686,171.489 302.186,172.655 297,175.5C 293.68,174.847 291.68,172.847 291,169.5C 287.263,151.293 294.096,139.293 311.5,133.5 Z"/></g>
<g><path style="opacity:1" fill="#0f0f0f" d="M 121.5,161.5 C 141.093,160.918 147.926,169.918 142,188.5C 135.006,195.991 126.84,197.491 117.5,193C 110.009,186.006 108.509,177.84 113,168.5C 115.441,165.546 118.275,163.213 121.5,161.5 Z"/></g>
<g><path style="opacity:1" fill="#0f0f0f" d="M 366.5,161.5 C 386.093,160.918 392.926,169.918 387,188.5C 380.006,195.991 371.84,197.491 362.5,193C 355.009,186.006 353.509,177.84 358,168.5C 360.441,165.546 363.275,163.213 366.5,161.5 Z"/></g>
<g><path style="opacity:1" fill="#14161a" d="M 290.5,285.5 C 289.626,280.592 287.293,276.426 283.5,273C 277.612,267.887 270.945,264.054 263.5,261.5C 261.272,262.219 259.439,263.552 258,265.5C 256.218,269.409 253.718,272.742 250.5,275.5C 246.096,272.194 242.763,268.027 240.5,263C 238.635,261.699 236.635,261.365 234.5,262C 226.216,265.617 219.05,270.784 213,277.5C 211.007,279.818 209.841,282.484 209.5,285.5C 189.464,269.412 180.297,248.412 182,222.5C 183.242,221.128 184.742,220.128 186.5,219.5C 200.605,225.051 214.605,230.885 228.5,237C 242.833,241.667 257.167,241.667 271.5,237C 283.068,232.55 294.402,227.55 305.5,222C 313.711,217.439 318.378,219.772 319.5,229C 318.384,246.358 312.55,261.858 302,275.5C 298.59,279.416 294.757,282.749 290.5,285.5 Z"/></g>
<g><path style="opacity:1" fill="#fe3840" d="M 290.5,285.5 C 278.809,294.432 265.476,298.766 250.5,298.5C 235.168,298.926 221.501,294.593 209.5,285.5C 209.841,282.484 211.007,279.818 213,277.5C 219.05,270.784 226.216,265.617 234.5,262C 236.635,261.365 238.635,261.699 240.5,263C 242.763,268.027 246.096,272.194 250.5,275.5C 253.718,272.742 256.218,269.409 258,265.5C 259.439,263.552 261.272,262.219 263.5,261.5C 270.945,264.054 277.612,267.887 283.5,273C 287.293,276.426 289.626,280.592 290.5,285.5 Z"/></g>
<g><path style="opacity:1" fill="#757575" d="M 86.5,296.5 C 87.9063,296.973 88.573,297.973 88.5,299.5C 87.0937,299.027 86.427,298.027 86.5,296.5 Z"/></g>
<g><path style="opacity:1" fill="#5b5b5b" d="M 350.5,320.5 C 349.833,323.167 348.167,324.833 345.5,325.5C 346.833,323.5 348.5,321.833 350.5,320.5 Z"/></g>
<g><path style="opacity:1" fill="#747474" d="M 48.5,362.5 C 49.7095,362.932 50.7095,363.599 51.5,364.5C 49.8212,364.715 48.8212,364.048 48.5,362.5 Z"/></g>
</svg>
