<?xml version="1.0" encoding="UTF-8"?>
<!DOCTYPE svg PUBLIC "-//W3C//DTD SVG 1.1//EN" "http://www.w3.org/Graphics/SVG/1.1/DTD/svg11.dtd">
<svg xmlns="http://www.w3.org/2000/svg" version="1.1" width="800px" height="800px" style="shape-rendering:geometricPrecision; text-rendering:geometricPrecision; image-rendering:optimizeQuality; fill-rule:evenodd; clip-rule:evenodd" xmlns:xlink="http://www.w3.org/1999/xlink">
<g><path style="opacity:1" fill="#e9580b" d="M -0.5,-0.5 C 266.167,-0.5 532.833,-0.5 799.5,-0.5C 799.5,266.167 799.5,532.833 799.5,799.5C 532.833,799.5 266.167,799.5 -0.5,799.5C -0.5,532.833 -0.5,266.167 -0.5,-0.5 Z"/></g>
<g><path style="opacity:1" fill="#000000" d="M 124.5,124.5 C 307.833,124.5 491.167,124.5 674.5,124.5C 674.5,307.833 674.5,491.167 674.5,674.5C 491.167,674.5 307.833,674.5 124.5,674.5C 124.5,491.167 124.5,307.833 124.5,124.5 Z"/></g>
<g><path style="opacity:1" fill="#e9570b" d="M 174.5,174.5 C 324.5,174.5 474.5,174.5 624.5,174.5C 624.5,324.5 624.5,474.5 624.5,624.5C 474.5,624.5 324.5,624.5 174.5,624.5C 174.5,474.5 174.5,324.5 174.5,174.5 Z"/></g>
<g><path style="opacity:0.95" fill="#000000" d="M 468.5,249.5 C 485.262,246.741 499.762,251.074 512,262.5C 513.973,265.617 515.807,268.784 517.5,272C 512.97,275.362 508.303,278.529 503.5,281.5C 494.1,266.276 481.433,262.443 465.5,270C 460.454,273.712 456.954,278.546 455,284.5C 454.333,300.5 454.333,316.5 455,332.5C 459.053,350.55 469.886,356.716 487.5,351C 494.478,347.552 498.978,342.052 501,334.5C 501.908,329.971 502.741,325.471 503.5,321C 495.841,320.5 488.174,320.334 480.5,320.5C 480.197,315.57 480.531,310.737 481.5,306C 494.162,305.5 506.829,305.333 519.5,305.5C 519.87,317.88 519.37,330.214 518,342.5C 513.785,358.704 503.285,367.538 486.5,369C 469.438,372.268 454.938,367.768 443,355.5C 439.501,350.34 437.167,344.674 436,338.5C 435.333,319.167 435.333,299.833 436,280.5C 440.534,263.464 451.368,253.13 468.5,249.5 Z"/></g>
<g><path style="opacity:0.965" fill="#000000" d="M 309.5,326.5 C 323.171,326.333 336.837,326.5 350.5,327C 391.956,330.774 411.456,353.274 409,394.5C 402.374,420.46 386.207,437.293 360.5,445C 376.004,471.509 393.837,496.342 414,519.5C 422.964,529.565 434.131,535.232 447.5,536.5C 447.823,540.226 447.489,543.893 446.5,547.5C 423.329,553.273 403.162,547.939 386,531.5C 365.6,505.713 347.433,478.38 331.5,449.5C 322.525,448.502 313.525,448.168 304.5,448.5C 304.333,471.169 304.5,493.836 305,516.5C 304.856,523.384 307.689,528.55 313.5,532C 321.044,533.983 328.711,535.316 336.5,536C 337.46,539.73 337.793,543.563 337.5,547.5C 308.165,544.894 278.832,544.894 249.5,547.5C 249.5,543.5 249.5,539.5 249.5,535.5C 255.654,535.169 261.654,534.003 267.5,532C 271.058,530.108 273.558,527.275 275,523.5C 276.146,494.705 276.646,465.872 276.5,437C 276.65,408.453 276.15,379.953 275,351.5C 273.421,345.59 269.588,342.09 263.5,341C 258.904,339.714 254.237,338.881 249.5,338.5C 249.5,334.833 249.5,331.167 249.5,327.5C 269.674,327.83 289.674,327.497 309.5,326.5 Z"/></g>
<g><path style="opacity:1" fill="#e9570b" d="M 305.5,343.5 C 318.171,343.333 330.838,343.5 343.5,344C 367.17,348.177 379.17,362.344 379.5,386.5C 377.554,413.946 362.888,429.113 335.5,432C 325.159,432.466 314.825,432.3 304.5,431.5C 304.175,402.093 304.509,372.76 305.5,343.5 Z"/></g>
</svg>
