<?xml version="1.0" encoding="UTF-8"?>
<!DOCTYPE svg PUBLIC "-//W3C//DTD SVG 1.1//EN" "http://www.w3.org/Graphics/SVG/1.1/DTD/svg11.dtd">
<svg xmlns="http://www.w3.org/2000/svg" version="1.1" width="400px" height="400px" style="shape-rendering:geometricPrecision; text-rendering:geometricPrecision; image-rendering:optimizeQuality; fill-rule:evenodd; clip-rule:evenodd" xmlns:xlink="http://www.w3.org/1999/xlink">
<g><path style="opacity:1" fill="#000000" d="M -0.5,-0.5 C 132.833,-0.5 266.167,-0.5 399.5,-0.5C 399.5,132.833 399.5,266.167 399.5,399.5C 266.167,399.5 132.833,399.5 -0.5,399.5C -0.5,266.167 -0.5,132.833 -0.5,-0.5 Z"/></g>
<g><path style="opacity:1" fill="#f4dcd6" d="M 148.5,105.5 C 149.064,110.423 149.064,115.256 148.5,120C 141.5,120.667 134.5,120.667 127.5,120C 121.89,118.697 116.223,117.864 110.5,117.5C 110.802,114.941 110.468,112.607 109.5,110.5C 101.314,109.324 94.4808,105.657 89,99.5C 86.9814,88.184 91.8147,83.3507 103.5,85C 105.249,83.7085 107.082,82.5418 109,81.5C 109.989,75.4996 109.489,69.6663 107.5,64C 107.833,63.5 108.167,63 108.5,62.5C 112.111,64.2231 115.278,66.5564 118,69.5C 118.186,67.0995 118.686,64.7662 119.5,62.5C 132.054,67.5597 140.554,76.5597 145,89.5C 146.489,94.7875 147.656,100.121 148.5,105.5 Z"/></g>
<g><path style="opacity:1" fill="#f6cbdb" d="M 148.5,105.5 C 150.561,112.558 151.561,119.891 151.5,127.5C 149.61,127.297 148.11,127.963 147,129.5C 135.419,127.534 123.586,126.867 111.5,127.5C 111.491,118.484 110.491,118.484 108.5,127.5C 107.5,127.5 106.5,127.5 105.5,127.5C 106.774,125.007 107.44,122.341 107.5,119.5C 109.123,116.785 109.79,113.785 109.5,110.5C 110.468,112.607 110.802,114.941 110.5,117.5C 116.223,117.864 121.89,118.697 127.5,120C 134.5,120.667 141.5,120.667 148.5,120C 149.064,115.256 149.064,110.423 148.5,105.5 Z"/></g>
<g><path style="opacity:1" fill="#fbc5df" d="M 151.5,127.5 C 151.663,129.857 151.497,132.19 151,134.5C 148.546,133.802 146.213,132.802 144,131.5C 141.446,132.771 138.613,133.438 135.5,133.5C 127.264,132.471 119.098,132.471 111,133.5C 110.316,131.641 109.316,129.974 108,128.5C 106.074,136.477 105.24,136.144 105.5,127.5C 106.5,127.5 107.5,127.5 108.5,127.5C 110.491,118.484 111.491,118.484 111.5,127.5C 123.586,126.867 135.419,127.534 147,129.5C 148.11,127.963 149.61,127.297 151.5,127.5 Z"/></g>
<g><path style="opacity:1" fill="#ebb2d5" d="M 107.5,119.5 C 107.44,122.341 106.774,125.007 105.5,127.5C 105.24,136.144 106.074,136.477 108,128.5C 109.316,129.974 110.316,131.641 111,133.5C 119.098,132.471 127.264,132.471 135.5,133.5C 138.613,133.438 141.446,132.771 144,131.5C 146.213,132.802 148.546,133.802 151,134.5C 151.497,132.19 151.663,129.857 151.5,127.5C 153.549,136.919 154.549,146.585 154.5,156.5C 154.5,158.167 154.5,159.833 154.5,161.5C 152.598,158.663 151.931,155.329 152.5,151.5C 152.494,146.785 151.994,142.118 151,137.5C 150.586,137.043 150.086,136.709 149.5,136.5C 135.873,136.96 122.373,137.293 109,137.5C 108.692,136.692 108.192,136.025 107.5,135.5C 106.205,138.012 105.539,140.679 105.5,143.5C 105.505,147.534 105.838,151.534 106.5,155.5C 104.061,150.92 103.061,145.92 103.5,140.5C 103.236,133.064 104.57,126.064 107.5,119.5 Z"/></g>
<g><path style="opacity:1" fill="#fcb7e4" d="M 152.5,151.5 C 152.167,151.5 151.833,151.5 151.5,151.5C 151.708,149.08 151.374,146.747 150.5,144.5C 148.376,143.851 146.376,143.017 144.5,142C 133.455,141.463 122.455,141.963 111.5,143.5C 111.408,150.008 110.742,150.008 109.5,143.5C 108.167,143.5 106.833,143.5 105.5,143.5C 105.539,140.679 106.205,138.012 107.5,135.5C 108.192,136.025 108.692,136.692 109,137.5C 122.373,137.293 135.873,136.96 149.5,136.5C 150.086,136.709 150.586,137.043 151,137.5C 151.994,142.118 152.494,146.785 152.5,151.5 Z"/></g>
<g><path style="opacity:1" fill="#f9abe3" d="M 151.5,151.5 C 150.25,151.577 149.417,152.244 149,153.5C 148.505,155.473 148.338,157.473 148.5,159.5C 147.5,159.5 146.5,159.5 145.5,159.5C 145.167,157.5 144.833,155.5 144.5,153.5C 133.5,153.5 122.5,153.5 111.5,153.5C 109.963,161.662 108.963,169.995 108.5,178.5C 109.33,182.149 109.996,185.815 110.5,189.5C 108.868,186.442 107.701,183.109 107,179.5C 106.5,171.507 106.334,163.507 106.5,155.5C 105.838,151.534 105.505,147.534 105.5,143.5C 106.833,143.5 108.167,143.5 109.5,143.5C 110.742,150.008 111.408,150.008 111.5,143.5C 122.455,141.963 133.455,141.463 144.5,142C 146.376,143.017 148.376,143.851 150.5,144.5C 151.374,146.747 151.708,149.08 151.5,151.5 Z"/></g>
<g><path style="opacity:1" fill="#fda6e9" d="M 151.5,151.5 C 151.833,151.5 152.167,151.5 152.5,151.5C 151.931,155.329 152.598,158.663 154.5,161.5C 164.341,162.167 174.341,162.833 184.5,163.5C 181.627,164.815 178.627,165.815 175.5,166.5C 178.758,167.853 182.092,169.02 185.5,170C 184.5,170.833 183.5,171.667 182.5,172.5C 182.709,173.086 183.043,173.586 183.5,174C 180.158,183.848 175.658,193.015 170,201.5C 169.187,203.436 168.687,205.436 168.5,207.5C 167.5,207.5 166.5,207.5 165.5,207.5C 164.226,211.381 162.393,215.048 160,218.5C 159.506,220.134 159.34,221.801 159.5,223.5C 157.833,223.5 156.167,223.5 154.5,223.5C 153.311,230.016 149.644,234.349 143.5,236.5C 143.719,237.675 143.386,238.675 142.5,239.5C 140.013,240.764 138.346,242.097 137.5,243.5C 136.229,241.066 134.229,239.566 131.5,239C 131.833,238.667 132.167,238.333 132.5,238C 130.539,235.365 128.039,233.531 125,232.5C 124.667,231.167 124.333,229.833 124,228.5C 122.054,227.253 120.22,225.92 118.5,224.5C 120.877,222.748 121.044,220.748 119,218.5C 118.667,219.167 118.333,219.833 118,220.5C 116.725,218.283 115.725,215.949 115,213.5C 114.829,205.989 114.329,198.655 113.5,191.5C 112.833,191.5 112.167,191.5 111.5,191.5C 110.662,191.158 110.328,190.492 110.5,189.5C 109.996,185.815 109.33,182.149 108.5,178.5C 108.963,169.995 109.963,161.662 111.5,153.5C 122.5,153.5 133.5,153.5 144.5,153.5C 144.833,155.5 145.167,157.5 145.5,159.5C 146.5,159.5 147.5,159.5 148.5,159.5C 148.338,157.473 148.505,155.473 149,153.5C 149.417,152.244 150.25,151.577 151.5,151.5 Z"/></g>
<g><path style="opacity:1" fill="#533b52" d="M 154.5,156.5 C 155.434,157.568 155.768,158.901 155.5,160.5C 173.008,160.17 190.341,160.503 207.5,161.5C 202.167,161.5 196.833,161.5 191.5,161.5C 179.167,161.5 166.833,161.5 154.5,161.5C 154.5,159.833 154.5,158.167 154.5,156.5 Z"/></g>
<g><path style="opacity:1" fill="#86caf1" d="M 217.5,162.5 C 219.735,162.205 221.735,162.539 223.5,163.5C 223.821,165.048 224.821,165.715 226.5,165.5C 226.611,166.117 226.944,166.617 227.5,167C 224.291,168.092 221.124,169.259 218,170.5C 216.78,173.003 216.447,175.669 217,178.5C 215.164,182.838 213.33,187.172 211.5,191.5C 205.536,196.625 199.869,201.958 194.5,207.5C 194.357,205.738 194.691,204.071 195.5,202.5C 198.203,200.294 200.703,197.961 203,195.5C 203.346,192.424 204.012,189.424 205,186.5C 207.833,181 210.667,175.5 213.5,170C 213.263,167.712 213.263,165.212 213.5,162.5C 214.833,162.5 216.167,162.5 217.5,162.5 Z"/></g>
<g><path style="opacity:1" fill="#8b9cce" d="M 305.5,188.5 C 302.325,187.818 300.825,185.818 301,182.5C 300.586,182.957 300.086,183.291 299.5,183.5C 297.656,178.43 293.989,176.43 288.5,177.5C 286.544,175.852 284.211,175.185 281.5,175.5C 293.217,172.365 301.217,176.698 305.5,188.5 Z"/></g>
<g><path style="opacity:1" fill="#70c2f2" d="M 255.5,173.5 C 258.911,174.36 262.244,175.526 265.5,177C 268.146,177.497 270.813,177.664 273.5,177.5C 278.908,177.574 282.241,180.241 283.5,185.5C 282.253,187.323 281.586,189.323 281.5,191.5C 283.766,191.141 285.599,191.808 287,193.5C 287.499,198.155 287.666,202.821 287.5,207.5C 293.641,207.101 293.975,208.101 288.5,210.5C 287.571,211.689 287.238,213.022 287.5,214.5C 294.013,216.919 294.013,219.586 287.5,222.5C 287.878,233.481 288.211,244.481 288.5,255.5C 286.076,255.192 283.743,255.526 281.5,256.5C 279.898,260.807 278.398,265.14 277,269.5C 275.667,271.5 274,273.167 272,274.5C 271.51,275.793 271.343,277.127 271.5,278.5C 270.448,278.351 269.448,278.517 268.5,279C 263.994,283.643 261.661,289.143 261.5,295.5C 260.5,295.5 259.5,295.5 258.5,295.5C 258.737,296.791 258.404,297.791 257.5,298.5C 257.784,296.585 257.451,294.919 256.5,293.5C 256.483,291.435 256.15,289.435 255.5,287.5C 257.045,288.23 257.878,289.563 258,291.5C 258.667,290.167 259.333,290.167 260,291.5C 260.576,289.623 260.409,287.789 259.5,286C 262.07,281.479 264.736,276.979 267.5,272.5C 272.003,271.518 274.336,269.018 274.5,265C 277.206,262.44 278.872,259.273 279.5,255.5C 283.471,239.263 283.471,223.263 279.5,207.5C 278.038,202.006 275.538,197.006 272,192.5C 270.301,191.594 268.467,191.261 266.5,191.5C 267.292,190.033 267.292,188.7 266.5,187.5C 262.801,186.627 259.135,185.627 255.5,184.5C 259.865,182.648 264.198,180.815 268.5,179C 265.868,178.551 263.368,177.717 261,176.5C 259.234,177.233 257.401,177.567 255.5,177.5C 255.5,176.167 255.5,174.833 255.5,173.5 Z"/></g>
<g><path style="opacity:1" fill="#d6b1ed" d="M 191.5,162.5 C 193.167,162.5 194.833,162.5 196.5,162.5C 196.025,171.423 193.191,179.756 188,187.5C 187.399,190.637 186.399,193.637 185,196.5C 181.187,203.604 176.687,210.27 171.5,216.5C 170.526,218.743 170.192,221.076 170.5,223.5C 169.325,223.281 168.325,223.614 167.5,224.5C 164.857,229.132 161.857,233.465 158.5,237.5C 153.197,240.249 149.03,244.249 146,249.5C 145.329,250.252 144.496,250.586 143.5,250.5C 143.672,249.508 143.338,248.842 142.5,248.5C 141.5,247.833 140.5,247.167 139.5,246.5C 145.905,245.269 150.405,241.603 153,235.5C 159.204,231.292 163.537,225.626 166,218.5C 170.276,215.987 172.443,212.32 172.5,207.5C 173.5,207.5 174.5,207.5 175.5,207.5C 180.257,197.395 183.924,186.895 186.5,176C 185.034,173.562 185.368,171.395 187.5,169.5C 185.851,168.852 184.518,167.852 183.5,166.5C 186.658,165.75 189.325,164.417 191.5,162.5 Z"/></g>
<g><path style="opacity:1" fill="#75d0f4" d="M 226.5,165.5 C 230.913,166.538 235.246,167.871 239.5,169.5C 241.149,170.148 242.482,171.148 243.5,172.5C 239.202,173.104 234.869,173.27 230.5,173C 231.167,173.667 231.833,174.333 232.5,175C 230.866,175.494 229.199,175.66 227.5,175.5C 225.974,179.865 223.141,183.199 219,185.5C 217.582,192.857 213.582,198.857 207,203.5C 205.202,208.963 201.869,213.297 197,216.5C 195.308,219.644 194.142,222.977 193.5,226.5C 189.568,229.929 185.735,233.596 182,237.5C 181.737,241.702 179.737,244.702 176,246.5C 174.034,248.89 172.534,251.557 171.5,254.5C 169.955,255.452 168.288,255.785 166.5,255.5C 166.66,257.199 166.494,258.866 166,260.5C 162.291,266.304 157.125,269.971 150.5,271.5C 150.923,273.781 150.256,275.448 148.5,276.5C 147.778,276.082 147.278,275.416 147,274.5C 145.648,276.594 145.148,278.927 145.5,281.5C 144.549,280.081 144.216,278.415 144.5,276.5C 144.421,275.07 144.754,273.736 145.5,272.5C 151.484,268.345 156.984,263.678 162,258.5C 162.511,256.122 163.178,253.788 164,251.5C 167.151,248.593 170.484,245.926 174,243.5C 174.624,241.246 175.957,239.579 178,238.5C 179.251,233.855 181.917,230.188 186,227.5C 186.874,221.412 189.54,216.412 194,212.5C 194.494,210.866 194.66,209.199 194.5,207.5C 199.869,201.958 205.536,196.625 211.5,191.5C 213.33,187.172 215.164,182.838 217,178.5C 216.447,175.669 216.78,173.003 218,170.5C 221.124,169.259 224.291,168.092 227.5,167C 226.944,166.617 226.611,166.117 226.5,165.5 Z"/></g>
<g><path style="opacity:1" fill="#c1b7ee" d="M 191.5,162.5 C 191.5,162.167 191.5,161.833 191.5,161.5C 196.833,161.5 202.167,161.5 207.5,161.5C 208.167,161.5 208.833,161.5 209.5,161.5C 208.032,162.779 207.365,164.446 207.5,166.5C 203.56,165.766 202.227,167.099 203.5,170.5C 203.5,171.833 203.5,173.167 203.5,174.5C 201.856,174.286 200.356,174.62 199,175.5C 194.517,186.13 190.35,196.796 186.5,207.5C 184.833,207.5 183.167,207.5 181.5,207.5C 180.712,211.066 178.878,214.066 176,216.5C 175.503,218.81 175.337,221.143 175.5,223.5C 174.167,223.5 172.833,223.5 171.5,223.5C 171.579,224.93 171.246,226.264 170.5,227.5C 164.9,231.097 161.234,236.097 159.5,242.5C 157.692,242.491 156.025,242.991 154.5,244C 151.902,248.433 148.236,251.6 143.5,253.5C 143.5,252.5 143.5,251.5 143.5,250.5C 144.496,250.586 145.329,250.252 146,249.5C 149.03,244.249 153.197,240.249 158.5,237.5C 161.857,233.465 164.857,229.132 167.5,224.5C 168.325,223.614 169.325,223.281 170.5,223.5C 170.192,221.076 170.526,218.743 171.5,216.5C 176.687,210.27 181.187,203.604 185,196.5C 186.399,193.637 187.399,190.637 188,187.5C 193.191,179.756 196.025,171.423 196.5,162.5C 194.833,162.5 193.167,162.5 191.5,162.5 Z"/></g>
<g><path style="opacity:1" fill="#64c9f4" d="M 266.5,191.5 C 268.467,191.261 270.301,191.594 272,192.5C 275.538,197.006 278.038,202.006 279.5,207.5C 283.471,223.263 283.471,239.263 279.5,255.5C 278.872,259.273 277.206,262.44 274.5,265C 274.336,269.018 272.003,271.518 267.5,272.5C 264.736,276.979 262.07,281.479 259.5,286C 260.409,287.789 260.576,289.623 260,291.5C 259.333,290.167 258.667,290.167 258,291.5C 257.878,289.563 257.045,288.23 255.5,287.5C 253.75,286.341 252.75,284.674 252.5,282.5C 253.161,281.282 253.828,279.949 254.5,278.5C 256.595,279.229 258.428,278.563 260,276.5C 262.296,273.01 264.296,269.343 266,265.5C 267.667,263.833 269.333,262.167 271,260.5C 270.869,254.215 271.869,248.215 274,242.5C 274.667,236.167 274.667,229.833 274,223.5C 273.333,222.167 272.667,220.833 272,219.5C 271.667,213.167 271.333,206.833 271,200.5C 267.911,198.323 266.411,195.323 266.5,191.5 Z"/></g>
<g><path style="opacity:1" fill="#a97ba0" d="M 111.5,191.5 C 112.167,191.5 112.833,191.5 113.5,191.5C 113.5,199.5 113.5,207.5 113.5,215.5C 112.774,207.631 112.107,199.631 111.5,191.5 Z"/></g>
<g><path style="opacity:1" fill="#5cd4f5" d="M 223.5,163.5 C 235.273,163.872 245.94,167.205 255.5,173.5C 255.5,174.833 255.5,176.167 255.5,177.5C 257.401,177.567 259.234,177.233 261,176.5C 263.368,177.717 265.868,178.551 268.5,179C 264.198,180.815 259.865,182.648 255.5,184.5C 259.135,185.627 262.801,186.627 266.5,187.5C 267.292,188.7 267.292,190.033 266.5,191.5C 266.411,195.323 267.911,198.323 271,200.5C 271.333,206.833 271.667,213.167 272,219.5C 272.667,220.833 273.333,222.167 274,223.5C 274.667,229.833 274.667,236.167 274,242.5C 271.869,248.215 270.869,254.215 271,260.5C 269.333,262.167 267.667,263.833 266,265.5C 264.296,269.343 262.296,273.01 260,276.5C 258.428,278.563 256.595,279.229 254.5,278.5C 253.828,279.949 253.161,281.282 252.5,282.5C 244.414,276.448 240.414,268.448 240.5,258.5C 240.56,257.957 240.893,257.624 241.5,257.5C 242.198,263.216 243.698,268.549 246,273.5C 247.074,272.382 248.24,271.382 249.5,270.5C 246.453,269.125 245.12,266.792 245.5,263.5C 247.167,263.5 248.833,263.5 250.5,263.5C 250.629,261.784 250.962,260.117 251.5,258.5C 252.822,258.67 253.989,258.337 255,257.5C 255.969,260.328 255.303,262.662 253,264.5C 252.506,266.134 252.34,267.801 252.5,269.5C 253.675,269.719 254.675,269.386 255.5,268.5C 256.826,264.936 258.66,261.603 261,258.5C 266,241.405 265.333,224.405 259,207.5C 258.667,208.167 258.333,208.833 258,209.5C 257.412,205.875 255.912,202.708 253.5,200C 255.709,199.043 255.543,197.876 253,196.5C 252.683,198.301 252.016,198.634 251,197.5C 250.023,193.732 248.523,190.232 246.5,187C 245.207,186.51 243.873,186.343 242.5,186.5C 242.539,188.359 241.706,189.692 240,190.5C 237.993,189.331 235.827,188.665 233.5,188.5C 233.5,189.5 233.5,190.5 233.5,191.5C 229.926,190.908 227.926,192.408 227.5,196C 224.507,198.328 221.173,199.994 217.5,201C 215.437,203.511 213.937,206.344 213,209.5C 207.857,212.479 204.357,216.812 202.5,222.5C 201.675,223.386 200.675,223.719 199.5,223.5C 199.649,224.552 199.483,225.552 199,226.5C 194.306,230.694 190.139,235.361 186.5,240.5C 184.675,245.656 182.008,250.322 178.5,254.5C 179.439,258.765 179.772,263.098 179.5,267.5C 178.811,268.774 177.977,268.774 177,267.5C 177.181,263.453 177.015,259.453 176.5,255.5C 173.99,259.863 170.824,263.863 167,267.5C 165.438,269.957 164.438,272.624 164,275.5C 162.981,276.687 161.814,277.687 160.5,278.5C 159.833,276.167 159.167,273.833 158.5,271.5C 157.833,274.167 157.167,276.833 156.5,279.5C 155.28,278.289 154.113,278.289 153,279.5C 152.503,282.146 152.336,284.813 152.5,287.5C 151.5,287.5 150.5,287.5 149.5,287.5C 149.756,283.731 149.423,280.064 148.5,276.5C 150.256,275.448 150.923,273.781 150.5,271.5C 157.125,269.971 162.291,266.304 166,260.5C 166.494,258.866 166.66,257.199 166.5,255.5C 168.288,255.785 169.955,255.452 171.5,254.5C 172.534,251.557 174.034,248.89 176,246.5C 179.737,244.702 181.737,241.702 182,237.5C 185.735,233.596 189.568,229.929 193.5,226.5C 194.142,222.977 195.308,219.644 197,216.5C 201.869,213.297 205.202,208.963 207,203.5C 213.582,198.857 217.582,192.857 219,185.5C 223.141,183.199 225.974,179.865 227.5,175.5C 229.199,175.66 230.866,175.494 232.5,175C 231.833,174.333 231.167,173.667 230.5,173C 234.869,173.27 239.202,173.104 243.5,172.5C 242.482,171.148 241.149,170.148 239.5,169.5C 235.246,167.871 230.913,166.538 226.5,165.5C 224.821,165.715 223.821,165.048 223.5,163.5 Z"/></g>
<g><path style="opacity:1" fill="#47def6" d="M 251.5,258.5 C 250.962,260.117 250.629,261.784 250.5,263.5C 248.833,263.5 247.167,263.5 245.5,263.5C 245.12,266.792 246.453,269.125 249.5,270.5C 248.24,271.382 247.074,272.382 246,273.5C 243.698,268.549 242.198,263.216 241.5,257.5C 240.893,257.624 240.56,257.957 240.5,258.5C 234.722,259.852 229.055,261.185 223.5,262.5C 210.087,262.942 196.754,262.276 183.5,260.5C 183.166,254.518 185.833,250.851 191.5,249.5C 191.5,247.833 191.5,246.167 191.5,244.5C 193.39,244.703 194.89,244.037 196,242.5C 197.333,236.491 200.166,231.325 204.5,227C 205.448,226.517 206.448,226.351 207.5,226.5C 206.986,224.488 206.82,222.488 207,220.5C 207.333,221.167 207.667,221.833 208,222.5C 211.927,215.058 217.761,210.058 225.5,207.5C 226.111,198.376 230.778,194.876 239.5,197C 244.206,201.928 247.372,207.761 249,214.5C 254.355,222.104 256.855,230.604 256.5,240C 255.856,245.116 255.189,250.282 254.5,255.5C 252.787,255.879 251.787,256.879 251.5,258.5 Z"/></g>
<g><path style="opacity:1" fill="#4edbf7" d="M 251.5,258.5 C 251.787,256.879 252.787,255.879 254.5,255.5C 255.189,250.282 255.856,245.116 256.5,240C 256.855,230.604 254.355,222.104 249,214.5C 247.372,207.761 244.206,201.928 239.5,197C 230.778,194.876 226.111,198.376 225.5,207.5C 217.761,210.058 211.927,215.058 208,222.5C 207.667,221.833 207.333,221.167 207,220.5C 206.82,222.488 206.986,224.488 207.5,226.5C 206.448,226.351 205.448,226.517 204.5,227C 200.166,231.325 197.333,236.491 196,242.5C 194.89,244.037 193.39,244.703 191.5,244.5C 191.5,246.167 191.5,247.833 191.5,249.5C 185.833,250.851 183.166,254.518 183.5,260.5C 182.5,260.5 181.5,260.5 180.5,260.5C 180.5,262.833 180.5,265.167 180.5,267.5C 180.167,267.5 179.833,267.5 179.5,267.5C 179.772,263.098 179.439,258.765 178.5,254.5C 182.008,250.322 184.675,245.656 186.5,240.5C 190.139,235.361 194.306,230.694 199,226.5C 199.483,225.552 199.649,224.552 199.5,223.5C 200.675,223.719 201.675,223.386 202.5,222.5C 204.357,216.812 207.857,212.479 213,209.5C 213.937,206.344 215.437,203.511 217.5,201C 221.173,199.994 224.507,198.328 227.5,196C 227.926,192.408 229.926,190.908 233.5,191.5C 233.5,190.5 233.5,189.5 233.5,188.5C 235.827,188.665 237.993,189.331 240,190.5C 241.706,189.692 242.539,188.359 242.5,186.5C 243.873,186.343 245.207,186.51 246.5,187C 248.523,190.232 250.023,193.732 251,197.5C 252.016,198.634 252.683,198.301 253,196.5C 255.543,197.876 255.709,199.043 253.5,200C 255.912,202.708 257.412,205.875 258,209.5C 258.333,208.833 258.667,208.167 259,207.5C 265.333,224.405 266,241.405 261,258.5C 258.66,261.603 256.826,264.936 255.5,268.5C 254.675,269.386 253.675,269.719 252.5,269.5C 252.34,267.801 252.506,266.134 253,264.5C 255.303,262.662 255.969,260.328 255,257.5C 253.989,258.337 252.822,258.67 251.5,258.5 Z"/></g>
<g><path style="opacity:1" fill="#121627" d="M 308.5,197.5 C 309.653,203.319 309.819,209.319 309,215.5C 308.376,217.754 307.043,219.421 305,220.5C 303.586,219.587 302.086,219.587 300.5,220.5C 303.139,218.691 305.306,216.358 307,213.5C 308.339,208.264 308.839,202.93 308.5,197.5 Z"/></g>
<g><path style="opacity:1" fill="#97c0ea" d="M 209.5,161.5 C 212.385,161.194 215.052,161.527 217.5,162.5C 216.167,162.5 214.833,162.5 213.5,162.5C 213.263,165.212 213.263,167.712 213.5,170C 210.667,175.5 207.833,181 205,186.5C 204.012,189.424 203.346,192.424 203,195.5C 200.703,197.961 198.203,200.294 195.5,202.5C 194.691,204.071 194.357,205.738 194.5,207.5C 193.71,208.609 193.21,209.942 193,211.5C 188.282,215.262 184.282,219.595 181,224.5C 181.261,229.687 178.928,232.687 174,233.5C 172.864,237.243 171.53,240.91 170,244.5C 167.457,245.207 165.291,246.54 163.5,248.5C 158.361,254.808 153.028,260.974 147.5,267C 146.207,267.49 144.873,267.657 143.5,267.5C 143.5,269.5 143.5,271.5 143.5,273.5C 142.507,265.35 142.174,257.017 142.5,248.5C 143.338,248.842 143.672,249.508 143.5,250.5C 143.5,251.5 143.5,252.5 143.5,253.5C 143.336,256.187 143.503,258.854 144,261.5C 145.648,260.283 147.481,259.45 149.5,259C 151.167,256.667 152.833,254.333 154.5,252C 156.025,250.991 157.692,250.491 159.5,250.5C 159.373,247.755 160.54,245.755 163,244.5C 163.494,242.866 163.66,241.199 163.5,239.5C 164.978,239.762 166.311,239.429 167.5,238.5C 169.106,233.576 172.272,230.243 177,228.5C 176.992,220.847 180.325,215.18 187,211.5C 187.788,206.591 190.121,202.591 194,199.5C 194.735,197.129 195.568,194.795 196.5,192.5C 198.859,188.33 201.359,184.33 204,180.5C 204.5,178 205,175.5 205.5,173C 205.316,171.624 204.649,170.791 203.5,170.5C 202.227,167.099 203.56,165.766 207.5,166.5C 207.365,164.446 208.032,162.779 209.5,161.5 Z"/></g>
<g><path style="opacity:1" fill="#afbef0" d="M 203.5,170.5 C 204.649,170.791 205.316,171.624 205.5,173C 205,175.5 204.5,178 204,180.5C 201.359,184.33 198.859,188.33 196.5,192.5C 195.568,194.795 194.735,197.129 194,199.5C 190.121,202.591 187.788,206.591 187,211.5C 180.325,215.18 176.992,220.847 177,228.5C 172.272,230.243 169.106,233.576 167.5,238.5C 166.311,239.429 164.978,239.762 163.5,239.5C 163.66,241.199 163.494,242.866 163,244.5C 160.54,245.755 159.373,247.755 159.5,250.5C 157.692,250.491 156.025,250.991 154.5,252C 152.833,254.333 151.167,256.667 149.5,259C 147.481,259.45 145.648,260.283 144,261.5C 143.503,258.854 143.336,256.187 143.5,253.5C 148.236,251.6 151.902,248.433 154.5,244C 156.025,242.991 157.692,242.491 159.5,242.5C 161.234,236.097 164.9,231.097 170.5,227.5C 171.246,226.264 171.579,224.93 171.5,223.5C 172.833,223.5 174.167,223.5 175.5,223.5C 175.337,221.143 175.503,218.81 176,216.5C 178.878,214.066 180.712,211.066 181.5,207.5C 183.167,207.5 184.833,207.5 186.5,207.5C 190.35,196.796 194.517,186.13 199,175.5C 200.356,174.62 201.856,174.286 203.5,174.5C 203.5,173.167 203.5,171.833 203.5,170.5 Z"/></g>
<g><path style="opacity:1" fill="#eca1da" d="M 113.5,191.5 C 114.329,198.655 114.829,205.989 115,213.5C 115.725,215.949 116.725,218.283 118,220.5C 118.333,219.833 118.667,219.167 119,218.5C 121.044,220.748 120.877,222.748 118.5,224.5C 120.22,225.92 122.054,227.253 124,228.5C 124.333,229.833 124.667,231.167 125,232.5C 128.039,233.531 130.539,235.365 132.5,238C 132.167,238.333 131.833,238.667 131.5,239C 134.229,239.566 136.229,241.066 137.5,243.5C 138.167,244.5 138.833,245.5 139.5,246.5C 126.493,239.825 117.826,229.492 113.5,215.5C 113.5,207.5 113.5,199.5 113.5,191.5 Z"/></g>
<g><path style="opacity:1" fill="#85cbf2" d="M 194.5,207.5 C 194.66,209.199 194.494,210.866 194,212.5C 189.54,216.412 186.874,221.412 186,227.5C 181.917,230.188 179.251,233.855 178,238.5C 175.957,239.579 174.624,241.246 174,243.5C 170.484,245.926 167.151,248.593 164,251.5C 163.178,253.788 162.511,256.122 162,258.5C 156.984,263.678 151.484,268.345 145.5,272.5C 144.754,273.736 144.421,275.07 144.5,276.5C 143.596,275.791 143.263,274.791 143.5,273.5C 143.5,271.5 143.5,269.5 143.5,267.5C 144.873,267.657 146.207,267.49 147.5,267C 153.028,260.974 158.361,254.808 163.5,248.5C 165.291,246.54 167.457,245.207 170,244.5C 171.53,240.91 172.864,237.243 174,233.5C 178.928,232.687 181.261,229.687 181,224.5C 184.282,219.595 188.282,215.262 193,211.5C 193.21,209.942 193.71,208.609 194.5,207.5 Z"/></g>
<g><path style="opacity:1" fill="#e5aceb" d="M 154.5,161.5 C 166.833,161.5 179.167,161.5 191.5,161.5C 191.5,161.833 191.5,162.167 191.5,162.5C 189.325,164.417 186.658,165.75 183.5,166.5C 184.518,167.852 185.851,168.852 187.5,169.5C 185.368,171.395 185.034,173.562 186.5,176C 183.924,186.895 180.257,197.395 175.5,207.5C 174.5,207.5 173.5,207.5 172.5,207.5C 172.443,212.32 170.276,215.987 166,218.5C 163.537,225.626 159.204,231.292 153,235.5C 150.405,241.603 145.905,245.269 139.5,246.5C 138.833,245.5 138.167,244.5 137.5,243.5C 138.346,242.097 140.013,240.764 142.5,239.5C 143.386,238.675 143.719,237.675 143.5,236.5C 149.644,234.349 153.311,230.016 154.5,223.5C 156.167,223.5 157.833,223.5 159.5,223.5C 159.34,221.801 159.506,220.134 160,218.5C 162.393,215.048 164.226,211.381 165.5,207.5C 166.5,207.5 167.5,207.5 168.5,207.5C 168.687,205.436 169.187,203.436 170,201.5C 175.658,193.015 180.158,183.848 183.5,174C 183.043,173.586 182.709,173.086 182.5,172.5C 183.5,171.667 184.5,170.833 185.5,170C 182.092,169.02 178.758,167.853 175.5,166.5C 178.627,165.815 181.627,164.815 184.5,163.5C 174.341,162.833 164.341,162.167 154.5,161.5 Z"/></g>
<g><path style="opacity:1" fill="#8aabeb" d="M 288.5,177.5 C 293.989,176.43 297.656,178.43 299.5,183.5C 300.086,183.291 300.586,182.957 301,182.5C 300.825,185.818 302.325,187.818 305.5,188.5C 307.253,191.146 308.253,194.146 308.5,197.5C 308.839,202.93 308.339,208.264 307,213.5C 305.306,216.358 303.139,218.691 300.5,220.5C 298.958,221.301 297.292,221.634 295.5,221.5C 295.334,227.509 295.501,233.509 296,239.5C 296.111,244.103 297.111,248.436 299,252.5C 299.5,260.493 299.666,268.493 299.5,276.5C 298.674,272.018 298.174,267.351 298,262.5C 297.667,262.167 297.333,261.833 297,261.5C 296.502,264.817 296.335,268.15 296.5,271.5C 295.5,271.5 294.5,271.5 293.5,271.5C 294.111,274.961 292.944,277.628 290,279.5C 289.586,279.043 289.086,278.709 288.5,278.5C 287.672,282.796 287.172,287.129 287,291.5C 285.416,290.139 283.582,289.472 281.5,289.5C 281.5,291.167 281.5,292.833 281.5,294.5C 278.448,291.424 275.614,288.09 273,284.5C 272.768,285.737 272.268,286.737 271.5,287.5C 271.388,281.638 273.221,280.638 277,284.5C 279.755,282.234 281.088,279.234 281,275.5C 284.733,271.116 287.067,266.116 288,260.5C 288.333,261.167 288.667,261.833 289,262.5C 289.662,260.187 290.162,257.854 290.5,255.5C 291.5,255.5 292.5,255.5 293.5,255.5C 294.604,244.467 294.604,233.467 293.5,222.5C 293.808,221.692 294.308,221.025 295,220.5C 295.273,216.51 295.439,212.676 295.5,209C 292.329,203.648 290.663,197.815 290.5,191.5C 289.5,191.5 288.5,191.5 287.5,191.5C 287.226,186.737 287.559,182.07 288.5,177.5 Z"/></g>
<g><path style="opacity:1" fill="#3b95a4" d="M 183.5,260.5 C 196.754,262.276 210.087,262.942 223.5,262.5C 209.888,265.383 196.221,265.05 182.5,261.5C 182.612,267.726 181.946,273.726 180.5,279.5C 180.5,275.5 180.5,271.5 180.5,267.5C 180.5,265.167 180.5,262.833 180.5,260.5C 181.5,260.5 182.5,260.5 183.5,260.5 Z"/></g>
<g><path style="opacity:1" fill="#7bb9f1" d="M 281.5,175.5 C 284.211,175.185 286.544,175.852 288.5,177.5C 287.559,182.07 287.226,186.737 287.5,191.5C 288.5,191.5 289.5,191.5 290.5,191.5C 290.663,197.815 292.329,203.648 295.5,209C 295.439,212.676 295.273,216.51 295,220.5C 294.308,221.025 293.808,221.692 293.5,222.5C 294.604,233.467 294.604,244.467 293.5,255.5C 292.5,255.5 291.5,255.5 290.5,255.5C 290.162,257.854 289.662,260.187 289,262.5C 288.667,261.833 288.333,261.167 288,260.5C 287.067,266.116 284.733,271.116 281,275.5C 281.088,279.234 279.755,282.234 277,284.5C 273.221,280.638 271.388,281.638 271.5,287.5C 271.344,292.471 270.344,297.138 268.5,301.5C 268.663,299.143 268.497,296.81 268,294.5C 265.983,297.144 265.15,300.144 265.5,303.5C 264.167,303.5 262.833,303.5 261.5,303.5C 261.5,302.5 261.5,301.5 261.5,300.5C 260.5,300.5 259.5,300.5 258.5,300.5C 258.5,301.5 258.5,302.5 258.5,303.5C 257.549,302.081 257.216,300.415 257.5,298.5C 258.404,297.791 258.737,296.791 258.5,295.5C 259.5,295.5 260.5,295.5 261.5,295.5C 261.661,289.143 263.994,283.643 268.5,279C 269.448,278.517 270.448,278.351 271.5,278.5C 271.343,277.127 271.51,275.793 272,274.5C 274,273.167 275.667,271.5 277,269.5C 278.398,265.14 279.898,260.807 281.5,256.5C 283.743,255.526 286.076,255.192 288.5,255.5C 288.211,244.481 287.878,233.481 287.5,222.5C 294.013,219.586 294.013,216.919 287.5,214.5C 287.238,213.022 287.571,211.689 288.5,210.5C 293.975,208.101 293.641,207.101 287.5,207.5C 287.666,202.821 287.499,198.155 287,193.5C 285.599,191.808 283.766,191.141 281.5,191.5C 281.586,189.323 282.253,187.323 283.5,185.5C 282.241,180.241 278.908,177.574 273.5,177.5C 275.838,175.96 278.505,175.294 281.5,175.5 Z"/></g>
<g><path style="opacity:1" fill="#4adcf4" d="M 179.5,267.5 C 179.833,267.5 180.167,267.5 180.5,267.5C 180.5,271.5 180.5,275.5 180.5,279.5C 180.471,286.006 179.471,292.339 177.5,298.5C 175.533,306.097 174.866,314.097 175.5,322.5C 175.227,327.378 173.56,331.711 170.5,335.5C 165.489,335.666 160.489,335.499 155.5,335C 156.252,334.329 156.586,333.496 156.5,332.5C 157.01,329.326 158.677,326.992 161.5,325.5C 162.496,325.586 163.329,325.252 164,324.5C 164.821,317.321 164.655,310.321 163.5,303.5C 163.5,302.5 163.5,301.5 163.5,300.5C 163.872,297.978 163.039,295.978 161,294.5C 160.536,295.094 160.369,295.761 160.5,296.5C 159.566,297.568 159.232,298.901 159.5,300.5C 158.542,300.953 157.708,301.619 157,302.5C 156.667,301.833 156.333,301.167 156,300.5C 156.083,303.119 156.25,305.786 156.5,308.5C 155.178,308.67 154.011,308.337 153,307.5C 151.915,302.563 151.248,297.563 151,292.5C 150.667,301.5 150.333,310.5 150,319.5C 149.01,322.626 147.844,325.626 146.5,328.5C 143.908,328.546 141.741,329.546 140,331.5C 137.901,330.722 136.401,329.389 135.5,327.5C 136.604,325.253 138.271,323.42 140.5,322C 141.472,318.571 142.805,315.404 144.5,312.5C 145.268,311.737 145.768,310.737 146,309.5C 146.822,301.988 146.655,294.655 145.5,287.5C 145.5,285.5 145.5,283.5 145.5,281.5C 145.148,278.927 145.648,276.594 147,274.5C 147.278,275.416 147.778,276.082 148.5,276.5C 149.423,280.064 149.756,283.731 149.5,287.5C 150.5,287.5 151.5,287.5 152.5,287.5C 152.336,284.813 152.503,282.146 153,279.5C 154.113,278.289 155.28,278.289 156.5,279.5C 157.167,276.833 157.833,274.167 158.5,271.5C 159.167,273.833 159.833,276.167 160.5,278.5C 161.814,277.687 162.981,276.687 164,275.5C 164.438,272.624 165.438,269.957 167,267.5C 170.824,263.863 173.99,259.863 176.5,255.5C 177.015,259.453 177.181,263.453 177,267.5C 177.977,268.774 178.811,268.774 179.5,267.5 Z"/></g>
<g><path style="opacity:1" fill="#9ea1ed" d="M 299.5,276.5 C 300.114,280.135 300.448,283.802 300.5,287.5C 300.167,287.5 299.833,287.5 299.5,287.5C 299.949,285.023 299.283,283.023 297.5,281.5C 295.717,283.023 295.051,285.023 295.5,287.5C 293.5,287.5 291.5,287.5 289.5,287.5C 289.5,290.833 289.5,294.167 289.5,297.5C 286.447,297.428 283.781,296.428 281.5,294.5C 281.5,292.833 281.5,291.167 281.5,289.5C 283.582,289.472 285.416,290.139 287,291.5C 287.172,287.129 287.672,282.796 288.5,278.5C 289.086,278.709 289.586,279.043 290,279.5C 292.944,277.628 294.111,274.961 293.5,271.5C 294.5,271.5 295.5,271.5 296.5,271.5C 296.335,268.15 296.502,264.817 297,261.5C 297.333,261.833 297.667,262.167 298,262.5C 298.174,267.351 298.674,272.018 299.5,276.5 Z"/></g>
<g><path style="opacity:1" fill="#aa9aeb" d="M 299.5,287.5 C 298.778,287.918 298.278,288.584 298,289.5C 297.502,292.482 297.335,295.482 297.5,298.5C 295.5,298.5 293.5,298.5 291.5,298.5C 291.283,302.705 290.617,306.705 289.5,310.5C 289.5,306.167 289.5,301.833 289.5,297.5C 289.5,294.167 289.5,290.833 289.5,287.5C 291.5,287.5 293.5,287.5 295.5,287.5C 295.051,285.023 295.717,283.023 297.5,281.5C 299.283,283.023 299.949,285.023 299.5,287.5 Z"/></g>
<g><path style="opacity:1" fill="#2e6881" d="M 163.5,300.5 C 162.857,298.924 161.857,297.59 160.5,296.5C 160.369,295.761 160.536,295.094 161,294.5C 163.039,295.978 163.872,297.978 163.5,300.5 Z"/></g>
<g><path style="opacity:1" fill="#3598a7" d="M 145.5,287.5 C 146.655,294.655 146.822,301.988 146,309.5C 145.768,310.737 145.268,311.737 144.5,312.5C 145.371,304.2 145.705,295.867 145.5,287.5 Z"/></g>
<g><path style="opacity:1" fill="#2d8a98" d="M 163.5,303.5 C 164.655,310.321 164.821,317.321 164,324.5C 163.329,325.252 162.496,325.586 161.5,325.5C 161.783,324.711 162.283,324.044 163,323.5C 163.5,316.842 163.666,310.175 163.5,303.5 Z"/></g>
<g><path style="opacity:1" fill="#b68fe8" d="M 299.5,287.5 C 299.833,287.5 300.167,287.5 300.5,287.5C 301.16,288.964 301.493,290.631 301.5,292.5C 299.036,303.65 297.869,314.984 298,326.5C 297.362,329.764 296.196,332.764 294.5,335.5C 290.298,335.817 286.298,335.483 282.5,334.5C 283.167,331.833 284.833,330.167 287.5,329.5C 289.248,323.426 289.915,317.093 289.5,310.5C 290.617,306.705 291.283,302.705 291.5,298.5C 293.5,298.5 295.5,298.5 297.5,298.5C 297.335,295.482 297.502,292.482 298,289.5C 298.278,288.584 298.778,287.918 299.5,287.5 Z"/></g>
<g><path style="opacity:1" fill="#335557" d="M 177.5,298.5 C 176.862,306.599 176.195,314.599 175.5,322.5C 174.866,314.097 175.533,306.097 177.5,298.5 Z"/></g>
<g><path style="opacity:1" fill="#8774b0" d="M 281.5,294.5 C 283.781,296.428 286.447,297.428 289.5,297.5C 289.5,301.833 289.5,306.167 289.5,310.5C 289.915,317.093 289.248,323.426 287.5,329.5C 288.492,319.852 288.658,310.186 288,300.5C 285.336,299.002 283.17,297.002 281.5,294.5 Z"/></g>
<g><path style="opacity:1" fill="#9379ba" d="M 299.5,276.5 C 303.963,285.176 304.463,294.176 301,303.5C 300.667,310.833 300.333,318.167 300,325.5C 299.627,329.218 298.461,332.551 296.5,335.5C 295.833,335.5 295.167,335.5 294.5,335.5C 296.196,332.764 297.362,329.764 298,326.5C 297.869,314.984 299.036,303.65 301.5,292.5C 301.493,290.631 301.16,288.964 300.5,287.5C 300.448,283.802 300.114,280.135 299.5,276.5 Z"/></g>
<g><path style="opacity:1" fill="#47d3dd" d="M 159.5,300.5 C 156.951,312.166 152.284,322.832 145.5,332.5C 141.833,332.5 138.167,332.5 134.5,332.5C 134.5,331.167 134.5,329.833 134.5,328.5C 134.5,327.833 134.833,327.5 135.5,327.5C 136.401,329.389 137.901,330.722 140,331.5C 141.741,329.546 143.908,328.546 146.5,328.5C 147.844,325.626 149.01,322.626 150,319.5C 150.333,310.5 150.667,301.5 151,292.5C 151.248,297.563 151.915,302.563 153,307.5C 154.011,308.337 155.178,308.67 156.5,308.5C 156.25,305.786 156.083,303.119 156,300.5C 156.333,301.167 156.667,301.833 157,302.5C 157.708,301.619 158.542,300.953 159.5,300.5 Z"/></g>
<g><path style="opacity:1" fill="#769ac6" d="M 256.5,293.5 C 257.451,294.919 257.784,296.585 257.5,298.5C 257.216,300.415 257.549,302.081 258.5,303.5C 256.342,309.247 254.676,315.247 253.5,321.5C 252.325,321.281 251.325,321.614 250.5,322.5C 249.563,325.677 247.896,328.343 245.5,330.5C 246.602,331.176 247.602,331.842 248.5,332.5C 246.5,332.5 244.5,332.5 242.5,332.5C 242.5,331.167 242.5,329.833 242.5,328.5C 243.485,325.515 245.485,323.515 248.5,322.5C 254.797,313.929 257.463,304.263 256.5,293.5 Z"/></g>
<g><path style="opacity:1" fill="#8babeb" d="M 268.5,301.5 C 267.22,308.702 263.887,314.702 258.5,319.5C 257.508,323.783 257.174,328.116 257.5,332.5C 254.5,332.5 251.5,332.5 248.5,332.5C 247.602,331.842 246.602,331.176 245.5,330.5C 247.896,328.343 249.563,325.677 250.5,322.5C 251.325,321.614 252.325,321.281 253.5,321.5C 254.676,315.247 256.342,309.247 258.5,303.5C 258.5,302.5 258.5,301.5 258.5,300.5C 259.5,300.5 260.5,300.5 261.5,300.5C 261.5,301.5 261.5,302.5 261.5,303.5C 262.833,303.5 264.167,303.5 265.5,303.5C 265.15,300.144 265.983,297.144 268,294.5C 268.497,296.81 268.663,299.143 268.5,301.5 Z"/></g>
<g><path style="opacity:1" fill="#206f70" d="M 134.5,328.5 C 134.5,329.833 134.5,331.167 134.5,332.5C 138.167,332.5 141.833,332.5 145.5,332.5C 141.702,333.483 137.702,333.817 133.5,333.5C 133.216,331.585 133.549,329.919 134.5,328.5 Z"/></g>
<g><path style="opacity:1" fill="#3e4c6c" d="M 242.5,328.5 C 242.5,329.833 242.5,331.167 242.5,332.5C 244.5,332.5 246.5,332.5 248.5,332.5C 251.5,332.5 254.5,332.5 257.5,332.5C 252.36,333.488 247.026,333.821 241.5,333.5C 241.216,331.585 241.549,329.919 242.5,328.5 Z"/></g>
<g><path style="opacity:1" fill="#3c5a61" d="M 156.5,332.5 C 156.586,333.496 156.252,334.329 155.5,335C 160.489,335.499 165.489,335.666 170.5,335.5C 165.36,336.488 160.026,336.821 154.5,336.5C 154.229,334.62 154.896,333.287 156.5,332.5 Z"/></g>
<g><path style="opacity:1" fill="#4d4a58" d="M 282.5,334.5 C 286.298,335.483 290.298,335.817 294.5,335.5C 295.167,335.5 295.833,335.5 296.5,335.5C 291.652,336.814 286.652,336.814 281.5,335.5C 281.624,334.893 281.957,334.56 282.5,334.5 Z"/></g>
</svg>
