<?xml version="1.0" encoding="UTF-8"?>
<!DOCTYPE svg PUBLIC "-//W3C//DTD SVG 1.1//EN" "http://www.w3.org/Graphics/SVG/1.1/DTD/svg11.dtd">
<svg xmlns="http://www.w3.org/2000/svg" version="1.1" width="260px" height="141px" style="shape-rendering:geometricPrecision; text-rendering:geometricPrecision; image-rendering:optimizeQuality; fill-rule:evenodd; clip-rule:evenodd" xmlns:xlink="http://www.w3.org/1999/xlink">
<g><path style="opacity:0.991" fill="#f69839" d="M 157.5,-0.5 C 165.5,-0.5 173.5,-0.5 181.5,-0.5C 210.667,7.02824 226,26.0282 227.5,56.5C 226.949,67.5897 224.616,78.2564 220.5,88.5C 219.022,88.238 217.689,88.5713 216.5,89.5C 214.639,94.2206 211.306,96.7206 206.5,97C 208.037,94.6872 208.537,92.1872 208,89.5C 202.345,87.9472 199.178,90.2805 198.5,96.5C 199.295,98.7027 200.128,100.703 201,102.5C 198.5,105.333 196,108.167 193.5,111C 191.655,112.128 189.655,112.628 187.5,112.5C 188.265,104.679 189.932,97.0122 192.5,89.5C 191.635,88.4173 190.635,88.2506 189.5,89C 187.667,90.1667 185.833,91.3333 184,92.5C 182.568,89.6168 180.235,88.2835 177,88.5C 166.733,90.7668 160.4,97.1001 158,107.5C 153.48,113.998 148.147,114.998 142,110.5C 141.018,109.241 140.685,107.908 141,106.5C 144.649,105.428 148.149,103.928 151.5,102C 158.866,95.3059 157.866,90.8059 148.5,88.5C 138.724,90.4477 133.224,96.4477 132,106.5C 122.075,117.276 117.408,115.609 118,101.5C 127.227,92.8187 131.56,82.1521 131,69.5C 130.612,68.572 129.945,67.9054 129,67.5C 125.779,68.5276 122.612,69.6942 119.5,71C 111.672,84.1399 108.172,98.3066 109,113.5C 110.732,118.617 114.232,120.45 119.5,119C 123.972,117.264 127.972,114.764 131.5,111.5C 134.36,118.264 139.36,120.764 146.5,119C 151.308,117.764 155.308,115.264 158.5,111.5C 160.328,118.848 164.662,121.015 171.5,118C 174.372,115.463 176.872,112.63 179,109.5C 178.186,118.036 181.686,120.87 189.5,118C 195.544,113.624 200.544,108.29 204.5,102C 206.146,100.599 207.813,100.432 209.5,101.5C 206.981,105.532 205.315,109.865 204.5,114.5C 187.961,131.125 167.961,139.792 144.5,140.5C 140.167,140.5 135.833,140.5 131.5,140.5C 121.034,139.639 110.7,137.472 100.5,134C 95.0214,131.569 91.5214,127.403 90,121.5C 83.7418,98.3987 84.0752,75.3987 91,52.5C 98.9616,32.2046 112.795,17.3713 132.5,8C 140.709,4.43121 149.042,1.59787 157.5,-0.5 Z"/></g>
<g><path style="opacity:0.982" fill="#3499cd" d="M -0.5,99.5 C -0.5,93.1667 -0.5,86.8333 -0.5,80.5C 4.87649,64.648 16.0432,56.648 33,56.5C 54.0216,57.5082 69.0216,67.5082 78,86.5C 83.0178,102.049 82.5178,117.382 76.5,132.5C 72.3884,135.596 67.7217,137.429 62.5,138C 30.2864,142.872 9.28644,130.039 -0.5,99.5 Z"/></g>
<g><path style="opacity:1" fill="#fde4cc" d="M 166.5,60.5 C 168.337,60.6395 168.67,61.3061 167.5,62.5C 166.702,62.0431 166.369,61.3764 166.5,60.5 Z"/></g>
<g><path style="opacity:1" fill="#ffecdb" d="M 187.5,61.5 C 189.085,62.4737 190.085,63.9737 190.5,66C 189.167,69.3333 189.167,72.6667 190.5,76C 189.552,76.4828 188.552,76.6495 187.5,76.5C 187.979,72.5656 187.312,68.8989 185.5,65.5C 186.853,64.4763 187.52,63.143 187.5,61.5 Z"/></g>
<g><path style="opacity:1" fill="#fee2c7" d="M 166.5,64.5 C 167.794,66.0478 168.461,68.0478 168.5,70.5C 168.167,72.5 167.833,74.5 167.5,76.5C 166.509,72.5546 166.176,68.5546 166.5,64.5 Z"/></g>
<g><path style="opacity:1" fill="#fecea0" d="M 181.5,64.5 C 182.5,64.5 183.5,64.5 184.5,64.5C 184.5,68.5 184.5,72.5 184.5,76.5C 183.5,76.5 182.5,76.5 181.5,76.5C 181.5,72.5 181.5,68.5 181.5,64.5 Z"/></g>
<g><path style="opacity:1" fill="#ffeddd" d="M 157.5,64.5 C 161.126,63.8607 162.959,65.194 163,68.5C 159.509,65.5544 157.342,66.3878 156.5,71C 157.809,75.0755 160.142,75.5755 163.5,72.5C 164.594,73.868 164.26,75.0347 162.5,76C 155.806,77.176 153.306,74.3427 155,67.5C 156.045,66.6266 156.878,65.6266 157.5,64.5 Z"/></g>
<g><path style="opacity:1" fill="#ffecdb" d="M 170.5,60.5 C 172.237,63.008 173.07,66.008 173,69.5C 174.5,68 176,66.5 177.5,65C 178.332,64.3123 178.998,64.479 179.5,65.5C 177.988,66.2494 176.988,67.416 176.5,69C 181.911,78.2129 181.078,78.7129 174,70.5C 172.983,72.3759 172.149,74.3759 171.5,76.5C 170.505,71.2079 170.172,65.8746 170.5,60.5 Z"/></g>
<g><path style="opacity:1" fill="#ffeede" d="M 146.5,64.5 C 149.056,64.1322 151.056,64.9655 152.5,67C 152.167,67.5 151.833,68 151.5,68.5C 150.158,66.9951 148.492,66.3285 146.5,66.5C 146.5,67.5 146.5,68.5 146.5,69.5C 149.573,69.4528 151.906,70.6194 153.5,73C 153.241,74.2613 152.574,75.2613 151.5,76C 149.231,76.7581 147.064,76.5914 145,75.5C 144.312,74.6683 144.479,74.0016 145.5,73.5C 153.292,74.2351 153.292,73.2351 145.5,70.5C 144.23,68.2432 144.564,66.2432 146.5,64.5 Z"/></g>
<g><path style="opacity:0.908" fill="#090502" d="M 220.5,88.5 C 219.173,94.3139 217.34,99.9806 215,105.5C 214.505,107.473 214.338,109.473 214.5,111.5C 218.147,111.378 220.981,109.712 223,106.5C 224.94,100.846 226.774,95.1791 228.5,89.5C 231.553,89.0893 234.553,88.4226 237.5,87.5C 237.833,88 238.167,88.5 238.5,89C 237.346,91.4369 236.846,93.9369 237,96.5C 240.339,92.0022 244.673,89.0022 250,87.5C 251.225,87.8623 252.391,88.3623 253.5,89C 254.635,96.8142 253.302,104.314 249.5,111.5C 249.808,112.308 250.308,112.975 251,113.5C 253.998,111.332 256.831,108.999 259.5,106.5C 259.5,108.5 259.5,110.5 259.5,112.5C 255.517,116.636 250.684,119.303 245,120.5C 241.109,119.563 239.276,117.063 239.5,113C 240.634,106.957 242.134,101.124 244,95.5C 235.391,100.717 231.558,108.384 232.5,118.5C 229.762,118.851 227.096,119.518 224.5,120.5C 223.682,117.893 223.182,115.226 223,112.5C 218.676,118.265 213.176,120.431 206.5,119C 205.418,117.67 204.751,116.17 204.5,114.5C 205.315,109.865 206.981,105.532 209.5,101.5C 207.813,100.432 206.146,100.599 204.5,102C 200.544,108.29 195.544,113.624 189.5,118C 181.686,120.87 178.186,118.036 179,109.5C 176.872,112.63 174.372,115.463 171.5,118C 164.662,121.015 160.328,118.848 158.5,111.5C 155.308,115.264 151.308,117.764 146.5,119C 139.36,120.764 134.36,118.264 131.5,111.5C 127.972,114.764 123.972,117.264 119.5,119C 114.232,120.45 110.732,118.617 109,113.5C 108.172,98.3066 111.672,84.1399 119.5,71C 122.612,69.6942 125.779,68.5276 129,67.5C 129.945,67.9054 130.612,68.572 131,69.5C 131.56,82.1521 127.227,92.8187 118,101.5C 117.408,115.609 122.075,117.276 132,106.5C 133.224,96.4477 138.724,90.4477 148.5,88.5C 157.866,90.8059 158.866,95.3059 151.5,102C 148.149,103.928 144.649,105.428 141,106.5C 140.685,107.908 141.018,109.241 142,110.5C 148.147,114.998 153.48,113.998 158,107.5C 160.4,97.1001 166.733,90.7668 177,88.5C 180.235,88.2835 182.568,89.6168 184,92.5C 185.833,91.3333 187.667,90.1667 189.5,89C 190.635,88.2506 191.635,88.4173 192.5,89.5C 189.932,97.0122 188.265,104.679 187.5,112.5C 189.655,112.628 191.655,112.128 193.5,111C 196,108.167 198.5,105.333 201,102.5C 200.128,100.703 199.295,98.7027 198.5,96.5C 199.178,90.2805 202.345,87.9472 208,89.5C 208.537,92.1872 208.037,94.6872 206.5,97C 211.306,96.7206 214.639,94.2206 216.5,89.5C 217.689,88.5713 219.022,88.238 220.5,88.5 Z"/></g>
<g><path style="opacity:1" fill="#dc8832" d="M 126.5,71.5 C 127.993,72.3121 128.66,73.6455 128.5,75.5C 127.493,83.5115 124.326,90.5115 119,96.5C 119.788,87.6852 122.288,79.3519 126.5,71.5 Z"/></g>
<g><path style="opacity:1" fill="#ea9035" d="M 144.5,91.5 C 148.677,90.8416 150.177,92.5082 149,96.5C 147.82,100.847 144.987,103.18 140.5,103.5C 140.138,98.9007 141.471,94.9007 144.5,91.5 Z"/></g>
<g><path style="opacity:1" fill="#ed9236" d="M 175.5,91.5 C 179.099,90.9376 181.099,92.4376 181.5,96C 180.595,100.382 179.095,104.548 177,108.5C 170.581,114.649 167.581,113.316 168,104.5C 169.503,99.4813 172.003,95.1479 175.5,91.5 Z"/></g>
</svg>